<svg width="280" height="43" viewBox="0 0 280 43" fill="none" xmlns="http://www.w3.org/2000/svg">
<path fill-rule="evenodd" clip-rule="evenodd" d="M25.8493 42.9999C35.7246 42.9999 43.8214 35.3857 44.5893 25.7079C48.9596 24.5002 52.1687 20.4952 52.1687 15.7407C52.1687 10.0302 47.5395 5.40094 41.829 5.40094C39.5599 5.40094 37.4615 6.13185 35.7565 7.37108C34.4808 3.10747 30.5279 0 25.8492 0C21.269 0 17.3844 2.97811 16.0261 7.10357C14.3947 6.02736 12.4403 5.40094 10.3397 5.40094C4.62925 5.40094 0 10.0302 0 15.7407C0 20.319 2.97561 24.2023 7.09837 25.5621C7.79605 35.3092 15.9245 42.9999 25.8493 42.9999Z" fill="url(#paint0_linear_4690_1629)"/>
<circle cx="26.0843" cy="24.6084" r="10.4867" stroke="white" stroke-width="1.82107"/>
<path d="M25.9191 14.2023V35.5101" stroke="white" stroke-width="1.82107"/>
<path d="M17.1649 28.9031L25.5889 25.2692" stroke="white" stroke-width="1.82107"/>
<path d="M69.4137 13.052H83.4777V15.692H69.4137V13.052ZM71.3817 24.236H81.3897V26.684H71.3817V24.236ZM71.3337 29.084H81.3417V31.628H71.3337V29.084ZM72.2457 10.388H74.9817V18.428H72.2457V10.388ZM78.0537 10.388H80.8137V18.428H78.0537V10.388ZM75.0777 20.66H77.7177V30.332H75.0777V20.66ZM70.0857 19.412H82.8297V32.516H80.0457V21.932H72.7497V32.66H70.0857V19.412ZM63.3177 12.212H68.7657V26.612H63.3177V23.828H66.1497V14.972H63.3177V12.212ZM61.8537 12.212H64.3977V28.556H61.8537V12.212ZM86.3337 14.324H106.686V17.156H86.3337V14.324ZM85.5417 28.844H107.406V31.724H85.5417V28.844ZM94.9017 10.124H97.9257V15.908H94.9017V10.124ZM100.326 17.996L103.638 18.572C102.702 22.532 101.406 26.924 100.278 29.756L97.4697 29.132C98.5977 26.204 99.7737 21.548 100.326 17.996ZM89.4297 18.788L92.1657 18.068C93.3177 21.044 94.2057 24.764 94.4457 27.308L91.4937 28.1C91.3257 25.604 90.4617 21.716 89.4297 18.788ZM119.646 17.708H123.87V20.084H119.646V17.708ZM122.598 17.708H124.998V30.14C124.998 31.244 124.806 31.868 124.134 32.252C123.486 32.636 122.574 32.684 121.326 32.684C121.254 32.012 120.966 31.028 120.678 30.404C121.35 30.428 122.07 30.428 122.286 30.428C122.526 30.428 122.598 30.356 122.598 30.116V17.708ZM125.526 17.708H129.774V20.084H125.526V17.708ZM128.43 17.708H130.926V30.068C130.926 31.172 130.758 31.844 130.062 32.252C129.366 32.636 128.43 32.684 127.158 32.684C127.062 32.012 126.774 30.98 126.486 30.332C127.158 30.356 127.878 30.356 128.118 30.356C128.358 30.356 128.43 30.284 128.43 30.02V17.708ZM125.454 12.764C124.398 14.54 122.478 16.796 120.414 18.212C120.126 17.444 119.502 16.388 119.022 15.764C121.086 14.492 123.102 12.044 124.062 10.148H126.678C127.998 12.188 129.99 14.348 131.982 15.428C131.454 16.124 130.854 17.18 130.422 18.02C128.598 16.748 126.582 14.516 125.454 12.764ZM112.95 10.124H115.734V17.108H112.95V10.124ZM112.95 23.276H115.734V32.66H112.95V23.276ZM112.422 21.524V22.604H116.262V21.524H112.422ZM112.422 18.404V19.484H116.262V18.404H112.422ZM109.95 16.244H118.854V24.788H109.95V16.244ZM109.422 12.332H119.262V14.852H109.422V12.332ZM109.182 26.156H119.406V28.724H109.182V26.156ZM121.206 20.54L123.27 21.116C122.55 22.508 121.302 23.9 120.15 24.788C119.766 24.404 118.974 23.708 118.494 23.396C119.598 22.652 120.606 21.62 121.206 20.54ZM121.326 24.932L123.438 25.532C122.43 27.476 120.774 29.324 119.142 30.5C118.782 30.092 117.942 29.348 117.462 29.012C119.046 28.028 120.486 26.54 121.326 24.932ZM126.894 20.54L128.982 21.116C128.31 22.484 127.158 23.852 126.03 24.74C125.67 24.38 124.806 23.708 124.302 23.42C125.382 22.676 126.342 21.62 126.894 20.54ZM127.134 24.932L129.246 25.508C128.382 27.428 126.918 29.3 125.478 30.476C125.094 30.092 124.254 29.348 123.774 29.036C125.166 28.028 126.414 26.516 127.134 24.932ZM139.533 13.0455H144.085L148.891 24.7727H149.096L153.903 13.0455H158.454V30.5H154.874V19.1392H154.729L150.212 30.4148H147.775L143.258 19.0966H143.113V30.5H139.533V13.0455ZM161.426 30.5V17.4091H165.057V30.5H161.426ZM163.25 15.7216C162.71 15.7216 162.247 15.5426 161.861 15.1847C161.48 14.821 161.29 14.3864 161.29 13.8807C161.29 13.3807 161.48 12.9517 161.861 12.5938C162.247 12.2301 162.71 12.0483 163.25 12.0483C163.79 12.0483 164.25 12.2301 164.631 12.5938C165.017 12.9517 165.21 13.3807 165.21 13.8807C165.21 14.3864 165.017 14.821 164.631 15.1847C164.25 15.5426 163.79 15.7216 163.25 15.7216ZM171.698 30.7472C170.863 30.7472 170.119 30.6023 169.465 30.3125C168.812 30.017 168.295 29.5824 167.914 29.0085C167.539 28.429 167.352 27.7074 167.352 26.8438C167.352 26.1165 167.485 25.5057 167.752 25.0114C168.019 24.517 168.383 24.1193 168.843 23.8182C169.303 23.517 169.826 23.2898 170.411 23.1364C171.002 22.983 171.621 22.875 172.269 22.8125C173.031 22.733 173.644 22.6591 174.11 22.5909C174.576 22.517 174.914 22.4091 175.124 22.267C175.335 22.125 175.44 21.9148 175.44 21.6364V21.5852C175.44 21.0455 175.269 20.6278 174.928 20.3324C174.593 20.0369 174.116 19.8892 173.496 19.8892C172.843 19.8892 172.323 20.0341 171.937 20.3239C171.55 20.608 171.295 20.9659 171.17 21.3977L167.812 21.125C167.982 20.3295 168.317 19.642 168.817 19.0625C169.317 18.4773 169.962 18.0284 170.752 17.7159C171.548 17.3977 172.468 17.2386 173.514 17.2386C174.241 17.2386 174.937 17.3239 175.602 17.4943C176.272 17.6648 176.866 17.929 177.383 18.2869C177.906 18.6449 178.317 19.1051 178.619 19.6676C178.92 20.2244 179.07 20.892 179.07 21.6705V30.5H175.627V28.6847H175.525C175.315 29.0938 175.033 29.4545 174.681 29.767C174.329 30.0739 173.906 30.3153 173.411 30.4915C172.917 30.6619 172.346 30.7472 171.698 30.7472ZM172.738 28.2415C173.272 28.2415 173.744 28.1364 174.153 27.9261C174.562 27.7102 174.883 27.4205 175.116 27.0568C175.349 26.6932 175.465 26.2812 175.465 25.821V24.4318C175.352 24.5057 175.195 24.5739 174.996 24.6364C174.803 24.6932 174.585 24.7472 174.34 24.7983C174.096 24.8437 173.852 24.8864 173.607 24.9261C173.363 24.9602 173.141 24.9915 172.942 25.0199C172.516 25.0824 172.144 25.1818 171.826 25.3182C171.508 25.4545 171.261 25.6392 171.085 25.8722C170.908 26.0994 170.82 26.3835 170.82 26.7244C170.82 27.2188 170.999 27.5966 171.357 27.858C171.721 28.1136 172.181 28.2415 172.738 28.2415ZM187.802 30.7557C186.478 30.7557 185.333 30.4744 184.367 29.9119C183.407 29.3437 182.666 28.554 182.143 27.5426C181.62 26.5256 181.359 25.3466 181.359 24.0057C181.359 22.6534 181.62 21.4716 182.143 20.4602C182.666 19.4432 183.407 18.6534 184.367 18.0909C185.333 17.5227 186.478 17.2386 187.802 17.2386C189.126 17.2386 190.268 17.5227 191.228 18.0909C192.194 18.6534 192.938 19.4432 193.461 20.4602C193.984 21.4716 194.245 22.6534 194.245 24.0057C194.245 25.3466 193.984 26.5256 193.461 27.5426C192.938 28.554 192.194 29.3437 191.228 29.9119C190.268 30.4744 189.126 30.7557 187.802 30.7557ZM187.819 27.9432C188.421 27.9432 188.924 27.7727 189.327 27.4318C189.731 27.0852 190.035 26.6136 190.239 26.017C190.45 25.4205 190.555 24.7415 190.555 23.9801C190.555 23.2188 190.45 22.5398 190.239 21.9432C190.035 21.3466 189.731 20.875 189.327 20.5284C188.924 20.1818 188.421 20.0085 187.819 20.0085C187.211 20.0085 186.7 20.1818 186.285 20.5284C185.876 20.875 185.566 21.3466 185.356 21.9432C185.151 22.5398 185.049 23.2188 185.049 23.9801C185.049 24.7415 185.151 25.4205 185.356 26.017C185.566 26.6136 185.876 27.0852 186.285 27.4318C186.7 27.7727 187.211 27.9432 187.819 27.9432ZM202.229 30.5V13.0455H205.919V27.4574H213.402V30.5H202.229ZM215.778 30.5V17.4091H219.408V30.5H215.778ZM217.602 15.7216C217.062 15.7216 216.599 15.5426 216.212 15.1847C215.832 14.821 215.641 14.3864 215.641 13.8807C215.641 13.3807 215.832 12.9517 216.212 12.5938C216.599 12.2301 217.062 12.0483 217.602 12.0483C218.141 12.0483 218.602 12.2301 218.982 12.5938C219.369 12.9517 219.562 13.3807 219.562 13.8807C219.562 14.3864 219.369 14.821 218.982 15.1847C218.602 15.5426 218.141 15.7216 217.602 15.7216ZM230.473 21.892V24.7727H222.513V21.892H230.473ZM233.635 30.5V13.0455H237.325V20.2472H244.817V13.0455H248.499V30.5H244.817V23.2898H237.325V30.5H233.635ZM255.206 30.7472C254.371 30.7472 253.626 30.6023 252.973 30.3125C252.32 30.017 251.803 29.5824 251.422 29.0085C251.047 28.429 250.859 27.7074 250.859 26.8438C250.859 26.1165 250.993 25.5057 251.26 25.0114C251.527 24.517 251.891 24.1193 252.351 23.8182C252.811 23.517 253.334 23.2898 253.919 23.1364C254.51 22.983 255.129 22.875 255.777 22.8125C256.538 22.733 257.152 22.6591 257.618 22.5909C258.084 22.517 258.422 22.4091 258.632 22.267C258.842 22.125 258.947 21.9148 258.947 21.6364V21.5852C258.947 21.0455 258.777 20.6278 258.436 20.3324C258.101 20.0369 257.624 19.8892 257.004 19.8892C256.351 19.8892 255.831 20.0341 255.445 20.3239C255.058 20.608 254.803 20.9659 254.678 21.3977L251.32 21.125C251.49 20.3295 251.825 19.642 252.325 19.0625C252.825 18.4773 253.47 18.0284 254.26 17.7159C255.055 17.3977 255.976 17.2386 257.021 17.2386C257.749 17.2386 258.445 17.3239 259.109 17.4943C259.78 17.6648 260.374 17.929 260.891 18.2869C261.413 18.6449 261.825 19.1051 262.126 19.6676C262.428 20.2244 262.578 20.892 262.578 21.6705V30.5H259.135V28.6847H259.033C258.822 29.0938 258.541 29.4545 258.189 29.767C257.837 30.0739 257.413 30.3153 256.919 30.4915C256.425 30.6619 255.854 30.7472 255.206 30.7472ZM256.246 28.2415C256.78 28.2415 257.251 28.1364 257.661 27.9261C258.07 27.7102 258.391 27.4205 258.624 27.0568C258.857 26.6932 258.973 26.2812 258.973 25.821V24.4318C258.859 24.5057 258.703 24.5739 258.504 24.6364C258.311 24.6932 258.092 24.7472 257.848 24.7983C257.604 24.8437 257.359 24.8864 257.115 24.9261C256.871 24.9602 256.649 24.9915 256.45 25.0199C256.024 25.0824 255.652 25.1818 255.334 25.3182C255.016 25.4545 254.768 25.6392 254.592 25.8722C254.416 26.0994 254.328 26.3835 254.328 26.7244C254.328 27.2188 254.507 27.5966 254.865 27.858C255.229 28.1136 255.689 28.2415 256.246 28.2415ZM269.026 22.9318V30.5H265.395V17.4091H268.855V19.7188H269.009C269.298 18.9574 269.784 18.3551 270.466 17.9119C271.148 17.4631 271.974 17.2386 272.946 17.2386C273.855 17.2386 274.648 17.4375 275.324 17.8352C276 18.233 276.526 18.8011 276.901 19.5398C277.276 20.2727 277.463 21.1477 277.463 22.1648V30.5H273.832V22.8125C273.838 22.0114 273.634 21.3864 273.219 20.9375C272.804 20.483 272.233 20.2557 271.506 20.2557C271.017 20.2557 270.585 20.3608 270.21 20.571C269.841 20.7812 269.551 21.0881 269.341 21.4915C269.136 21.8892 269.031 22.3693 269.026 22.9318Z" fill="#DA7D4A"/>
<defs>
<linearGradient id="paint0_linear_4690_1629" x1="0.804842" y1="26.2795" x2="51.0541" y2="26.2795" gradientUnits="userSpaceOnUse">
<stop stop-color="#E6793B"/>
<stop offset="1" stop-color="#FF4185"/>
</linearGradient>
</defs>
</svg>
